STARTFONT 2.1
FONT -SGI-Screen-Bold-R-Normal--12-120-72-72-M-80-ISO8859-1
SIZE 12 72 72
FONTBOUNDINGBOX 8 12 0 -2

STARTPROPERTIES 25
_DEC_DEVICE_FONTNAMES "FM=Screen-Bold"
FONTNAME_REGISTRY ""
FAMILY_NAME "Screen"
FOUNDRY "SGI"
WEIGHT_NAME "Bold"
SLANT "R"
SETWIDTH_NAME "Normal"
ADD_STYLE_NAME ""
PIXEL_SIZE 12
POINT_SIZE 120
RESOLUTION_X 72
RESOLUTION_Y 72
SPACING "M"
AVERAGE_WIDTH 80
CHARSET_REGISTRY "ISO8859"
CHARSET_ENCODING "1"
CHARSET_COLLECTIONS "ASCII ISO8859-1"
FULL_NAME "Screen Bold"
CAP_HEIGHT 8
X_HEIGHT 6
WEIGHT 10
QUAD_WIDTH 8
DEFAULT_CHAR 0
FONT_DESCENT 2
FONT_ASCENT 10
ENDPROPERTIES

CHARS 190

STARTCHAR space
ENCODING 32
SWIDTH 667 0
DWIDTH 8 0
BBX 8 12 0 -2
BITMAP
00
00
00
00
00
00
00
00
00
00
00
00
ENDCHAR

STARTCHAR exclam
ENCODING 33
SWIDTH 667 0
DWIDTH 8 0
BBX 8 12 0 -2
BITMAP
00
00
18
18
18
18
18
00
18
18
00
00
ENDCHAR

STARTCHAR quotedbl
ENCODING 34
SWIDTH 667 0
DWIDTH 8 0
BBX 8 12 0 -2
BITMAP
00
6C
6C
6C
6C
00
00
00
00
00
00
00
ENDCHAR

STARTCHAR numbersign
ENCODING 35
SWIDTH 667 0
DWIDTH 8 0
BBX 8 12 0 -2
BITMAP
00
00
1B
1B
7F
36
36
FF
6C
6C
00
00
ENDCHAR

STARTCHAR dollar
ENCODING 36
SWIDTH 667 0
DWIDTH 8 0
BBX 8 12 0 -2
BITMAP
00
00
18
3C
5A
38
1C
5A
5A
3C
18
00
ENDCHAR

STARTCHAR percent
ENCODING 37
SWIDTH 667 0
DWIDTH 8 0
BBX 8 12 0 -2
BITMAP
00
00
6C
AC
B8
D8
36
3A
6A
6C
00
00
ENDCHAR

STARTCHAR ampersand
ENCODING 38
SWIDTH 667 0
DWIDTH 8 0
BBX 8 12 0 -2
BITMAP
00
00
70
D8
D8
70
DE
CC
CC
76
00
00
ENDCHAR

STARTCHAR quoteright
ENCODING 39
SWIDTH 667 0
DWIDTH 8 0
BBX 8 12 0 -2
BITMAP
00
0C
0C
18
10
00
00
00
00
00
00
00
ENDCHAR

STARTCHAR parenleft
ENCODING 40
SWIDTH 667 0
DWIDTH 8 0
BBX 8 12 0 -2
BITMAP
00
0C
18
18
30
30
30
30
18
18
0C
00
ENDCHAR

STARTCHAR parenright
ENCODING 41
SWIDTH 667 0
DWIDTH 8 0
BBX 8 12 0 -2
BITMAP
00
30
18
18
0C
0C
0C
0C
18
18
30
00
ENDCHAR

STARTCHAR asterisk
ENCODING 42
SWIDTH 667 0
DWIDTH 8 0
BBX 8 12 0 -2
BITMAP
00
18
5A
7E
3C
7E
5A
18
00
00
00
00
ENDCHAR

STARTCHAR plus
ENCODING 43
SWIDTH 667 0
DWIDTH 8 0
BBX 8 12 0 -2
BITMAP
00
00
00
18
18
7E
7E
18
18
00
00
00
ENDCHAR

STARTCHAR comma
ENCODING 44
SWIDTH 667 0
DWIDTH 8 0
BBX 8 12 0 -2
BITMAP
00
00
00
00
00
00
00
00
18
18
30
00
ENDCHAR

STARTCHAR minus
ENCODING 45
SWIDTH 667 0
DWIDTH 8 0
BBX 8 12 0 -2
BITMAP
00
00
00
00
00
7C
7C
00
00
00
00
00
ENDCHAR

STARTCHAR period
ENCODING 46
SWIDTH 667 0
DWIDTH 8 0
BBX 8 12 0 -2
BITMAP
00
00
00
00
00
00
00
00
18
18
00
00
ENDCHAR

STARTCHAR slash
ENCODING 47
SWIDTH 667 0
DWIDTH 8 0
BBX 8 12 0 -2
BITMAP
00
00
06
06
0C
0C
18
18
30
30
00
00
ENDCHAR

STARTCHAR zero
ENCODING 48
SWIDTH 667 0
DWIDTH 8 0
BBX 8 12 0 -2
BITMAP
00
00
3C
66
6E
7E
76
66
66
3C
00
00
ENDCHAR

STARTCHAR one
ENCODING 49
SWIDTH 667 0
DWIDTH 8 0
BBX 8 12 0 -2
BITMAP
00
00
18
38
18
18
18
18
18
3C
00
00
ENDCHAR

STARTCHAR two
ENCODING 50
SWIDTH 667 0
DWIDTH 8 0
BBX 8 12 0 -2
BITMAP
00
00
3C
66
66
0C
18
30
60
7E
00
00
ENDCHAR

STARTCHAR three
ENCODING 51
SWIDTH 667 0
DWIDTH 8 0
BBX 8 12 0 -2
BITMAP
00
00
3C
66
06
1C
06
06
66
3C
00
00
ENDCHAR

STARTCHAR four
ENCODING 52
SWIDTH 667 0
DWIDTH 8 0
BBX 8 12 0 -2
BITMAP
00
00
0C
1C
3C
6C
CC
FE
0C
0C
00
00
ENDCHAR

STARTCHAR five
ENCODING 53
SWIDTH 667 0
DWIDTH 8 0
BBX 8 12 0 -2
BITMAP
00
00
7E
60
60
7C
06
06
66
3C
00
00
ENDCHAR

STARTCHAR six
ENCODING 54
SWIDTH 667 0
DWIDTH 8 0
BBX 8 12 0 -2
BITMAP
00
00
3C
62
60
7C
66
66
66
3C
00
00
ENDCHAR

STARTCHAR seven
ENCODING 55
SWIDTH 667 0
DWIDTH 8 0
BBX 8 12 0 -2
BITMAP
00
00
7E
02
06
0C
18
18
30
30
00
00
ENDCHAR

STARTCHAR eight
ENCODING 56
SWIDTH 667 0
DWIDTH 8 0
BBX 8 12 0 -2
BITMAP
00
00
3C
66
66
3C
66
66
66
3C
00
00
ENDCHAR

STARTCHAR nine
ENCODING 57
SWIDTH 667 0
DWIDTH 8 0
BBX 8 12 0 -2
BITMAP
00
00
3C
66
66
66
3E
06
46
3C
00
00
ENDCHAR

STARTCHAR colon
ENCODING 58
SWIDTH 667 0
DWIDTH 8 0
BBX 8 12 0 -2
BITMAP
00
00
00
00
18
18
00
00
18
18
00
00
ENDCHAR

STARTCHAR semicolon
ENCODING 59
SWIDTH 667 0
DWIDTH 8 0
BBX 8 12 0 -2
BITMAP
00
00
00
00
18
18
00
00
18
18
30
00
ENDCHAR

STARTCHAR less
ENCODING 60
SWIDTH 667 0
DWIDTH 8 0
BBX 8 12 0 -2
BITMAP
00
00
04
0C
18
30
60
30
18
0C
04
00
ENDCHAR

STARTCHAR equal
ENCODING 61
SWIDTH 667 0
DWIDTH 8 0
BBX 8 12 0 -2
BITMAP
00
00
00
00
7E
7E
00
7E
7E
00
00
00
ENDCHAR

STARTCHAR greater
ENCODING 62
SWIDTH 667 0
DWIDTH 8 0
BBX 8 12 0 -2
BITMAP
00
00
20
30
18
0C
06
0C
18
30
20
00
ENDCHAR

STARTCHAR question
ENCODING 63
SWIDTH 667 0
DWIDTH 8 0
BBX 8 12 0 -2
BITMAP
00
3C
66
66
0C
18
18
00
18
18
00
00
ENDCHAR

STARTCHAR at
ENCODING 64
SWIDTH 667 0
DWIDTH 8 0
BBX 8 12 0 -2
BITMAP
00
00
1C
32
66
6A
6A
6E
60
32
1C
00
ENDCHAR

STARTCHAR A
ENCODING 65
SWIDTH 667 0
DWIDTH 8 0
BBX 8 12 0 -2
BITMAP
00
00
10
38
38
6C
6C
FE
C6
C6
00
00
ENDCHAR

STARTCHAR B
ENCODING 66
SWIDTH 667 0
DWIDTH 8 0
BBX 8 12 0 -2
BITMAP
00
00
7C
66
66
7C
66
66
66
7C
00
00
ENDCHAR

STARTCHAR C
ENCODING 67
SWIDTH 667 0
DWIDTH 8 0
BBX 8 12 0 -2
BITMAP
00
00
3C
66
60
60
60
60
66
3C
00
00
ENDCHAR

STARTCHAR D
ENCODING 68
SWIDTH 667 0
DWIDTH 8 0
BBX 8 12 0 -2
BITMAP
00
00
7C
66
66
66
66
66
66
7C
00
00
ENDCHAR

STARTCHAR E
ENCODING 69
SWIDTH 667 0
DWIDTH 8 0
BBX 8 12 0 -2
BITMAP
00
00
7E
60
60
7C
60
60
60
7E
00
00
ENDCHAR

STARTCHAR F
ENCODING 70
SWIDTH 667 0
DWIDTH 8 0
BBX 8 12 0 -2
BITMAP
00
00
7E
60
60
7C
60
60
60
60
00
00
ENDCHAR

STARTCHAR G
ENCODING 71
SWIDTH 667 0
DWIDTH 8 0
BBX 8 12 0 -2
BITMAP
00
00
3C
66
60
60
6E
66
66
3A
00
00
ENDCHAR

STARTCHAR H
ENCODING 72
SWIDTH 667 0
DWIDTH 8 0
BBX 8 12 0 -2
BITMAP
00
00
66
66
66
7E
66
66
66
66
00
00
ENDCHAR

STARTCHAR I
ENCODING 73
SWIDTH 667 0
DWIDTH 8 0
BBX 8 12 0 -2
BITMAP
00
00
3C
18
18
18
18
18
18
3C
00
00
ENDCHAR

STARTCHAR J
ENCODING 74
SWIDTH 667 0
DWIDTH 8 0
BBX 8 12 0 -2
BITMAP
00
00
06
06
06
06
06
66
66
3C
00
00
ENDCHAR

STARTCHAR K
ENCODING 75
SWIDTH 667 0
DWIDTH 8 0
BBX 8 12 0 -2
BITMAP
00
00
62
66
6C
78
6C
6C
66
66
00
00
ENDCHAR

STARTCHAR L
ENCODING 76
SWIDTH 667 0
DWIDTH 8 0
BBX 8 12 0 -2
BITMAP
00
00
60
60
60
60
60
60
60
7E
00
00
ENDCHAR

STARTCHAR M
ENCODING 77
SWIDTH 667 0
DWIDTH 8 0
BBX 8 12 0 -2
BITMAP
00
00
C6
C6
EE
EE
FE
D6
D6
C6
00
00
ENDCHAR

STARTCHAR N
ENCODING 78
SWIDTH 667 0
DWIDTH 8 0
BBX 8 12 0 -2
BITMAP
00
00
66
66
76
76
7E
6E
6E
66
00
00
ENDCHAR

STARTCHAR O
ENCODING 79
SWIDTH 667 0
DWIDTH 8 0
BBX 8 12 0 -2
BITMAP
00
00
3C
66
66
66
66
66
66
3C
00
00
ENDCHAR

STARTCHAR P
ENCODING 80
SWIDTH 667 0
DWIDTH 8 0
BBX 8 12 0 -2
BITMAP
00
00
7C
66
66
66
7C
60
60
60
00
00
ENDCHAR

STARTCHAR Q
ENCODING 81
SWIDTH 667 0
DWIDTH 8 0
BBX 8 12 0 -2
BITMAP
00
00
3C
66
66
66
66
66
76
3C
08
06
ENDCHAR

STARTCHAR R
ENCODING 82
SWIDTH 667 0
DWIDTH 8 0
BBX 8 12 0 -2
BITMAP
00
00
7C
66
66
7C
68
6C
66
66
00
00
ENDCHAR

STARTCHAR S
ENCODING 83
SWIDTH 667 0
DWIDTH 8 0
BBX 8 12 0 -2
BITMAP
00
00
3C
66
60
38
1C
06
66
3C
00
00
ENDCHAR

STARTCHAR T
ENCODING 84
SWIDTH 667 0
DWIDTH 8 0
BBX 8 12 0 -2
BITMAP
00
00
7E
18
18
18
18
18
18
18
00
00
ENDCHAR

STARTCHAR U
ENCODING 85
SWIDTH 667 0
DWIDTH 8 0
BBX 8 12 0 -2
BITMAP
00
00
66
66
66
66
66
66
66
3C
00
00
ENDCHAR

STARTCHAR V
ENCODING 86
SWIDTH 667 0
DWIDTH 8 0
BBX 8 12 0 -2
BITMAP
00
00
66
66
66
66
3C
3C
18
18
00
00
ENDCHAR

STARTCHAR W
ENCODING 87
SWIDTH 667 0
DWIDTH 8 0
BBX 8 12 0 -2
BITMAP
00
00
C6
C6
D6
54
7C
7C
28
28
00
00
ENDCHAR

STARTCHAR X
ENCODING 88
SWIDTH 667 0
DWIDTH 8 0
BBX 8 12 0 -2
BITMAP
00
00
66
66
3C
18
3C
66
66
66
00
00
ENDCHAR

STARTCHAR Y
ENCODING 89
SWIDTH 667 0
DWIDTH 8 0
BBX 8 12 0 -2
BITMAP
00
00
66
66
66
3C
3C
18
18
18
00
00
ENDCHAR

STARTCHAR Z
ENCODING 90
SWIDTH 667 0
DWIDTH 8 0
BBX 8 12 0 -2
BITMAP
00
00
7E
06
0C
18
18
30
60
7E
00
00
ENDCHAR

STARTCHAR bracketleft
ENCODING 91
SWIDTH 667 0
DWIDTH 8 0
BBX 8 12 0 -2
BITMAP
00
00
3C
30
30
30
30
30
30
30
3C
00
ENDCHAR

STARTCHAR backslash
ENCODING 92
SWIDTH 667 0
DWIDTH 8 0
BBX 8 12 0 -2
BITMAP
00
00
60
60
30
30
18
18
0C
0C
00
00
ENDCHAR

STARTCHAR bracketright
ENCODING 93
SWIDTH 667 0
DWIDTH 8 0
BBX 8 12 0 -2
BITMAP
00
00
3C
0C
0C
0C
0C
0C
0C
0C
3C
00
ENDCHAR

STARTCHAR asciicircum
ENCODING 94
SWIDTH 667 0
DWIDTH 8 0
BBX 8 12 0 -2
BITMAP
00
00
10
38
6C
00
00
00
00
00
00
00
ENDCHAR

STARTCHAR underscore
ENCODING 95
SWIDTH 667 0
DWIDTH 8 0
BBX 8 12 0 -2
BITMAP
00
00
00
00
00
00
00
00
00
00
FF
FF
ENDCHAR

STARTCHAR quoteleft
ENCODING 96
SWIDTH 667 0
DWIDTH 8 0
BBX 8 12 0 -2
BITMAP
00
30
30
18
08
00
00
00
00
00
00
00
ENDCHAR

STARTCHAR a
ENCODING 97
SWIDTH 667 0
DWIDTH 8 0
BBX 8 12 0 -2
BITMAP
00
00
00
00
3C
06
3E
66
66
3E
00
00
ENDCHAR

STARTCHAR b
ENCODING 98
SWIDTH 667 0
DWIDTH 8 0
BBX 8 12 0 -2
BITMAP
00
00
60
60
6C
76
66
66
76
6C
00
00
ENDCHAR

STARTCHAR c
ENCODING 99
SWIDTH 667 0
DWIDTH 8 0
BBX 8 12 0 -2
BITMAP
00
00
00
00
3C
66
60
60
66
3C
00
00
ENDCHAR

STARTCHAR d
ENCODING 100
SWIDTH 667 0
DWIDTH 8 0
BBX 8 12 0 -2
BITMAP
00
00
06
06
36
6E
66
66
6E
36
00
00
ENDCHAR

STARTCHAR e
ENCODING 101
SWIDTH 667 0
DWIDTH 8 0
BBX 8 12 0 -2
BITMAP
00
00
00
00
3C
66
7E
60
66
3C
00
00
ENDCHAR

STARTCHAR f
ENCODING 102
SWIDTH 667 0
DWIDTH 8 0
BBX 8 12 0 -2
BITMAP
00
00
0E
18
7E
18
18
18
18
18
00
00
ENDCHAR

STARTCHAR g
ENCODING 103
SWIDTH 667 0
DWIDTH 8 0
BBX 8 12 0 -2
BITMAP
00
00
00
00
36
6E
66
66
6E
36
06
7C
ENDCHAR

STARTCHAR h
ENCODING 104
SWIDTH 667 0
DWIDTH 8 0
BBX 8 12 0 -2
BITMAP
00
00
60
60
6C
76
66
66
66
66
00
00
ENDCHAR

STARTCHAR i
ENCODING 105
SWIDTH 667 0
DWIDTH 8 0
BBX 8 12 0 -2
BITMAP
00
00
0C
00
3C
0C
0C
0C
0C
0C
00
00
ENDCHAR

STARTCHAR j
ENCODING 106
SWIDTH 667 0
DWIDTH 8 0
BBX 8 12 0 -2
BITMAP
00
00
0C
00
3C
0C
0C
0C
0C
0C
0C
38
ENDCHAR

STARTCHAR k
ENCODING 107
SWIDTH 667 0
DWIDTH 8 0
BBX 8 12 0 -2
BITMAP
00
00
60
60
66
6C
78
6C
66
66
00
00
ENDCHAR

STARTCHAR l
ENCODING 108
SWIDTH 667 0
DWIDTH 8 0
BBX 8 12 0 -2
BITMAP
00
00
3C
0C
0C
0C
0C
0C
0C
0C
00
00
ENDCHAR

STARTCHAR m
ENCODING 109
SWIDTH 667 0
DWIDTH 8 0
BBX 8 12 0 -2
BITMAP
00
00
00
00
EC
FE
D6
D6
D6
D6
00
00
ENDCHAR

STARTCHAR n
ENCODING 110
SWIDTH 667 0
DWIDTH 8 0
BBX 8 12 0 -2
BITMAP
00
00
00
00
6C
76
66
66
66
66
00
00
ENDCHAR

STARTCHAR o
ENCODING 111
SWIDTH 667 0
DWIDTH 8 0
BBX 8 12 0 -2
BITMAP
00
00
00
00
3C
66
66
66
66
3C
00
00
ENDCHAR

STARTCHAR p
ENCODING 112
SWIDTH 667 0
DWIDTH 8 0
BBX 8 12 0 -2
BITMAP
00
00
00
00
6C
76
66
66
76
6C
60
60
ENDCHAR

STARTCHAR q
ENCODING 113
SWIDTH 667 0
DWIDTH 8 0
BBX 8 12 0 -2
BITMAP
00
00
00
00
36
6E
66
66
6E
36
06
06
ENDCHAR

STARTCHAR r
ENCODING 114
SWIDTH 667 0
DWIDTH 8 0
BBX 8 12 0 -2
BITMAP
00
00
00
00
6C
76
60
60
60
60
00
00
ENDCHAR

STARTCHAR s
ENCODING 115
SWIDTH 667 0
DWIDTH 8 0
BBX 8 12 0 -2
BITMAP
00
00
00
00
3C
60
3C
06
66
3C
00
00
ENDCHAR

STARTCHAR t
ENCODING 116
SWIDTH 667 0
DWIDTH 8 0
BBX 8 12 0 -2
BITMAP
00
00
18
18
7E
18
18
18
18
0E
00
00
ENDCHAR

STARTCHAR u
ENCODING 117
SWIDTH 667 0
DWIDTH 8 0
BBX 8 12 0 -2
BITMAP
00
00
00
00
66
66
66
66
6E
36
00
00
ENDCHAR

STARTCHAR v
ENCODING 118
SWIDTH 667 0
DWIDTH 8 0
BBX 8 12 0 -2
BITMAP
00
00
00
00
66
66
66
24
3C
18
00
00
ENDCHAR

STARTCHAR w
ENCODING 119
SWIDTH 667 0
DWIDTH 8 0
BBX 8 12 0 -2
BITMAP
00
00
00
00
C6
C6
D6
D6
FE
6C
00
00
ENDCHAR

STARTCHAR x
ENCODING 120
SWIDTH 667 0
DWIDTH 8 0
BBX 8 12 0 -2
BITMAP
00
00
00
00
66
3C
18
3C
66
66
00
00
ENDCHAR

STARTCHAR y
ENCODING 121
SWIDTH 667 0
DWIDTH 8 0
BBX 8 12 0 -2
BITMAP
00
00
00
00
66
66
66
66
66
3E
06
7C
ENDCHAR

STARTCHAR z
ENCODING 122
SWIDTH 667 0
DWIDTH 8 0
BBX 8 12 0 -2
BITMAP
00
00
00
00
7E
0C
18
30
60
7E
00
00
ENDCHAR

STARTCHAR braceleft
ENCODING 123
SWIDTH 667 0
DWIDTH 8 0
BBX 8 12 0 -2
BITMAP
00
0E
18
18
18
30
18
18
18
18
0E
00
ENDCHAR

STARTCHAR bar
ENCODING 124
SWIDTH 667 0
DWIDTH 8 0
BBX 8 12 0 -2
BITMAP
00
18
18
18
18
18
18
18
18
18
18
00
ENDCHAR

STARTCHAR braceright
ENCODING 125
SWIDTH 667 0
DWIDTH 8 0
BBX 8 12 0 -2
BITMAP
00
70
18
18
18
0C
18
18
18
18
70
00
ENDCHAR

STARTCHAR asciitilde
ENCODING 126
SWIDTH 667 0
DWIDTH 8 0
BBX 8 12 0 -2
BITMAP
00
00
00
00
00
32
7E
4C
00
00
00
00
ENDCHAR

STARTCHAR exclamdown
ENCODING 161
SWIDTH 667 0
DWIDTH 8 0
BBX 8 12 0 -2
BITMAP
00
00
00
00
18
18
00
18
18
18
18
18
ENDCHAR

STARTCHAR cent
ENCODING 162
SWIDTH 667 0
DWIDTH 8 0
BBX 8 12 0 -2
BITMAP
00
18
18
3C
66
60
66
3C
18
18
00
00
ENDCHAR

STARTCHAR sterling
ENCODING 163
SWIDTH 667 0
DWIDTH 8 0
BBX 8 12 0 -2
BITMAP
00
1C
36
30
30
78
30
30
66
7C
00
00
ENDCHAR

STARTCHAR currency
ENCODING 164
SWIDTH 667 0
DWIDTH 8 0
BBX 8 12 0 -2
BITMAP
00
00
00
66
3C
24
24
3C
66
00
00
00
ENDCHAR

STARTCHAR yen
ENCODING 165
SWIDTH 667 0
DWIDTH 8 0
BBX 8 12 0 -2
BITMAP
00
00
42
66
3C
18
7E
18
7E
18
00
00
ENDCHAR

STARTCHAR brokenbar
ENCODING 166
SWIDTH 667 0
DWIDTH 8 0
BBX 8 12 0 -2
BITMAP
00
18
18
18
18
18
00
18
18
18
18
00
ENDCHAR

STARTCHAR section
ENCODING 167
SWIDTH 667 0
DWIDTH 8 0
BBX 8 12 0 -2
BITMAP
00
3C
66
30
7C
46
62
3E
0C
66
3C
00
ENDCHAR

STARTCHAR dieresis
ENCODING 168
SWIDTH 667 0
DWIDTH 8 0
BBX 8 12 0 -2
BITMAP
00
6C
6C
00
00
00
00
00
00
00
00
00
ENDCHAR

STARTCHAR copyright
ENCODING 169
SWIDTH 667 0
DWIDTH 8 0
BBX 8 12 0 -2
BITMAP
00
00
00
7C
C6
F6
E6
F6
C6
7C
00
00
ENDCHAR

STARTCHAR ordfeminine
ENCODING 170
SWIDTH 667 0
DWIDTH 8 0
BBX 8 12 0 -2
BITMAP
00
78
2C
6C
7C
00
7C
00
00
00
00
00
ENDCHAR

STARTCHAR guillemotleft
ENCODING 171
SWIDTH 667 0
DWIDTH 8 0
BBX 8 12 0 -2
BITMAP
00
00
00
00
36
6C
D8
D8
6C
36
00
00
ENDCHAR

STARTCHAR logicalnot
ENCODING 172
SWIDTH 667 0
DWIDTH 8 0
BBX 8 12 0 -2
BITMAP
00
00
00
00
00
7E
7E
06
00
00
00
00
ENDCHAR

STARTCHAR hyphen
ENCODING 173
SWIDTH 667 0
DWIDTH 8 0
BBX 8 12 0 -2
BITMAP
00
00
00
00
00
3C
3C
00
00
00
00
00
ENDCHAR

STARTCHAR registered
ENCODING 174
SWIDTH 667 0
DWIDTH 8 0
BBX 8 12 0 -2
BITMAP
00
00
00
7C
C6
F6
F6
EE
C6
7C
00
00
ENDCHAR

STARTCHAR macron
ENCODING 175
SWIDTH 667 0
DWIDTH 8 0
BBX 8 12 0 -2
BITMAP
00
3C
3C
00
00
00
00
00
00
00
00
00
ENDCHAR

STARTCHAR degree
ENCODING 176
SWIDTH 667 0
DWIDTH 8 0
BBX 8 12 0 -2
BITMAP
00
00
00
38
28
38
00
00
00
00
00
00
ENDCHAR

STARTCHAR plusminus
ENCODING 177
SWIDTH 667 0
DWIDTH 8 0
BBX 8 12 0 -2
BITMAP
00
00
00
18
18
7E
18
18
00
7E
00
00
ENDCHAR

STARTCHAR twosuperior
ENCODING 178
SWIDTH 667 0
DWIDTH 8 0
BBX 8 12 0 -2
BITMAP
38
0C
18
30
3C
00
00
00
00
00
00
00
ENDCHAR

STARTCHAR threesuperior
ENCODING 179
SWIDTH 667 0
DWIDTH 8 0
BBX 8 12 0 -2
BITMAP
3C
0C
18
0C
3C
00
00
00
00
00
00
00
ENDCHAR

STARTCHAR acute
ENCODING 180
SWIDTH 667 0
DWIDTH 8 0
BBX 8 12 0 -2
BITMAP
00
18
30
00
00
00
00
00
00
00
00
00
ENDCHAR

STARTCHAR mu
ENCODING 181
SWIDTH 667 0
DWIDTH 8 0
BBX 8 12 0 -2
BITMAP
00
00
00
00
66
66
66
66
6E
76
60
60
ENDCHAR

STARTCHAR paragraph
ENCODING 182
SWIDTH 667 0
DWIDTH 8 0
BBX 8 12 0 -2
BITMAP
00
7F
F6
B6
F6
76
36
36
36
36
36
00
ENDCHAR

STARTCHAR periodcentered
ENCODING 183
SWIDTH 667 0
DWIDTH 8 0
BBX 8 12 0 -2
BITMAP
00
00
00
00
00
18
18
00
00
00
00
00
ENDCHAR

STARTCHAR cedilla
ENCODING 184
SWIDTH 667 0
DWIDTH 8 0
BBX 8 12 0 -2
BITMAP
00
00
00
00
00
00
00
00
00
00
08
18
ENDCHAR

STARTCHAR onesuperior
ENCODING 185
SWIDTH 667 0
DWIDTH 8 0
BBX 8 12 0 -2
BITMAP
18
38
18
18
3C
00
00
00
00
00
00
00
ENDCHAR

STARTCHAR ordmasculine
ENCODING 186
SWIDTH 667 0
DWIDTH 8 0
BBX 8 12 0 -2
BITMAP
00
38
6C
6C
38
00
7C
00
00
00
00
00
ENDCHAR

STARTCHAR guillemotright
ENCODING 187
SWIDTH 667 0
DWIDTH 8 0
BBX 8 12 0 -2
BITMAP
00
00
00
00
D8
6C
36
36
6C
D8
00
00
ENDCHAR

STARTCHAR onequarter
ENCODING 188
SWIDTH 667 0
DWIDTH 8 0
BBX 8 12 0 -2
BITMAP
30
70
30
32
7C
08
16
2E
4A
1F
06
00
ENDCHAR

STARTCHAR onehalf
ENCODING 189
SWIDTH 667 0
DWIDTH 8 0
BBX 8 12 0 -2
BITMAP
30
70
30
32
7C
08
1E
23
46
0C
0F
00
ENDCHAR

STARTCHAR threequarters
ENCODING 190
SWIDTH 667 0
DWIDTH 8 0
BBX 8 12 0 -2
BITMAP
78
18
30
1A
7C
08
16
2E
4A
1F
06
00
ENDCHAR

STARTCHAR questiondown
ENCODING 191
SWIDTH 667 0
DWIDTH 8 0
BBX 8 12 0 -2
BITMAP
00
00
00
18
18
00
18
18
30
66
66
3C
ENDCHAR

STARTCHAR Agrave
ENCODING 192
SWIDTH 667 0
DWIDTH 8 0
BBX 8 12 0 -2
BITMAP
30
18
00
10
38
38
6C
6C
FE
C6
00
00
ENDCHAR

STARTCHAR Aacute
ENCODING 193
SWIDTH 667 0
DWIDTH 8 0
BBX 8 12 0 -2
BITMAP
18
30
00
10
38
38
6C
6C
FE
C6
00
00
ENDCHAR

STARTCHAR Acircumflex
ENCODING 194
SWIDTH 667 0
DWIDTH 8 0
BBX 8 12 0 -2
BITMAP
38
6C
00
10
38
38
6C
6C
FE
C6
00
00
ENDCHAR

STARTCHAR Atilde
ENCODING 195
SWIDTH 667 0
DWIDTH 8 0
BBX 8 12 0 -2
BITMAP
74
5C
00
10
38
38
6C
6C
FE
C6
00
00
ENDCHAR

STARTCHAR Adieresis
ENCODING 196
SWIDTH 667 0
DWIDTH 8 0
BBX 8 12 0 -2
BITMAP
6C
6C
00
10
38
38
6C
6C
FE
C6
00
00
ENDCHAR

STARTCHAR Aring
ENCODING 197
SWIDTH 667 0
DWIDTH 8 0
BBX 8 12 0 -2
BITMAP
38
28
38
10
38
38
6C
6C
FE
C6
00
00
ENDCHAR

STARTCHAR AE
ENCODING 198
SWIDTH 667 0
DWIDTH 8 0
BBX 8 12 0 -2
BITMAP
00
00
3E
78
58
DC
F8
D8
D8
DE
00
00
ENDCHAR

STARTCHAR Ccedilla
ENCODING 199
SWIDTH 667 0
DWIDTH 8 0
BBX 8 12 0 -2
BITMAP
00
00
3C
66
60
60
60
60
66
3C
08
18
ENDCHAR

STARTCHAR Egrave
ENCODING 200
SWIDTH 667 0
DWIDTH 8 0
BBX 8 12 0 -2
BITMAP
30
18
00
7E
60
60
7C
60
60
7E
00
00
ENDCHAR

STARTCHAR Eacute
ENCODING 201
SWIDTH 667 0
DWIDTH 8 0
BBX 8 12 0 -2
BITMAP
0C
18
00
7E
60
60
7C
60
60
7E
00
00
ENDCHAR

STARTCHAR Ecircumflex
ENCODING 202
SWIDTH 667 0
DWIDTH 8 0
BBX 8 12 0 -2
BITMAP
1C
36
00
7E
60
60
7C
60
60
7E
00
00
ENDCHAR

STARTCHAR Edieresis
ENCODING 203
SWIDTH 667 0
DWIDTH 8 0
BBX 8 12 0 -2
BITMAP
36
36
00
7E
60
60
7C
60
60
7E
00
00
ENDCHAR

STARTCHAR Igrave
ENCODING 204
SWIDTH 667 0
DWIDTH 8 0
BBX 8 12 0 -2
BITMAP
30
18
00
3C
18
18
18
18
18
3C
00
00
ENDCHAR

STARTCHAR Iacute
ENCODING 205
SWIDTH 667 0
DWIDTH 8 0
BBX 8 12 0 -2
BITMAP
0C
18
00
3C
18
18
18
18
18
3C
00
00
ENDCHAR

STARTCHAR Icircumflex
ENCODING 206
SWIDTH 667 0
DWIDTH 8 0
BBX 8 12 0 -2
BITMAP
1C
36
00
3C
18
18
18
18
18
3C
00
00
ENDCHAR

STARTCHAR Idieresis
ENCODING 207
SWIDTH 667 0
DWIDTH 8 0
BBX 8 12 0 -2
BITMAP
36
36
00
3C
18
18
18
18
18
3C
00
00
ENDCHAR

STARTCHAR Eth
ENCODING 208
SWIDTH 667 0
DWIDTH 8 0
BBX 8 12 0 -2
BITMAP
00
00
00
7C
66
66
F6
66
66
7C
00
00
ENDCHAR

STARTCHAR Ntilde
ENCODING 209
SWIDTH 667 0
DWIDTH 8 0
BBX 8 12 0 -2
BITMAP
74
5C
00
66
76
76
7E
6E
6E
66
00
00
ENDCHAR

STARTCHAR Ograve
ENCODING 210
SWIDTH 667 0
DWIDTH 8 0
BBX 8 12 0 -2
BITMAP
30
18
00
3C
66
66
66
66
66
3C
00
00
ENDCHAR

STARTCHAR Oacute
ENCODING 211
SWIDTH 667 0
DWIDTH 8 0
BBX 8 12 0 -2
BITMAP
0C
18
00
3C
66
66
66
66
66
3C
00
00
ENDCHAR

STARTCHAR Ocircumflex
ENCODING 212
SWIDTH 667 0
DWIDTH 8 0
BBX 8 12 0 -2
BITMAP
1C
36
00
3C
66
66
66
66
66
3C
00
00
ENDCHAR

STARTCHAR Otilde
ENCODING 213
SWIDTH 667 0
DWIDTH 8 0
BBX 8 12 0 -2
BITMAP
3A
2E
00
3C
66
66
66
66
66
3C
00
00
ENDCHAR

STARTCHAR Odieresis
ENCODING 214
SWIDTH 667 0
DWIDTH 8 0
BBX 8 12 0 -2
BITMAP
36
36
00
3C
66
66
66
66
66
3C
00
00
ENDCHAR

STARTCHAR multiply
ENCODING 215
SWIDTH 667 0
DWIDTH 8 0
BBX 8 12 0 -2
BITMAP
00
00
00
00
66
3C
18
3C
66
00
00
00
ENDCHAR

STARTCHAR Oslash
ENCODING 216
SWIDTH 667 0
DWIDTH 8 0
BBX 8 12 0 -2
BITMAP
00
00
02
3C
66
6E
76
76
66
BC
00
00
ENDCHAR

STARTCHAR Ugrave
ENCODING 217
SWIDTH 667 0
DWIDTH 8 0
BBX 8 12 0 -2
BITMAP
30
18
00
66
66
66
66
66
66
3C
00
00
ENDCHAR

STARTCHAR Uacute
ENCODING 218
SWIDTH 667 0
DWIDTH 8 0
BBX 8 12 0 -2
BITMAP
0C
18
00
66
66
66
66
66
66
3C
00
00
ENDCHAR

STARTCHAR Ucircumflex
ENCODING 219
SWIDTH 667 0
DWIDTH 8 0
BBX 8 12 0 -2
BITMAP
1C
36
00
66
66
66
66
66
66
3C
00
00
ENDCHAR

STARTCHAR Udieresis
ENCODING 220
SWIDTH 667 0
DWIDTH 8 0
BBX 8 12 0 -2
BITMAP
36
36
00
66
66
66
66
66
66
3C
00
00
ENDCHAR

STARTCHAR Yacute
ENCODING 221
SWIDTH 667 0
DWIDTH 8 0
BBX 8 12 0 -2
BITMAP
0C
18
00
66
66
3C
3C
18
18
18
00
00
ENDCHAR

STARTCHAR Thorn
ENCODING 222
SWIDTH 667 0
DWIDTH 8 0
BBX 8 12 0 -2
BITMAP
00
00
F0
60
7C
66
66
7C
60
F0
00
00
ENDCHAR

STARTCHAR germandbls
ENCODING 223
SWIDTH 667 0
DWIDTH 8 0
BBX 8 12 0 -2
BITMAP
00
00
38
6C
6C
78
6C
66
76
6C
00
00
ENDCHAR

STARTCHAR agrave
ENCODING 224
SWIDTH 667 0
DWIDTH 8 0
BBX 8 12 0 -2
BITMAP
00
18
0C
00
3C
06
3E
66
66
3E
00
00
ENDCHAR

STARTCHAR aacute
ENCODING 225
SWIDTH 667 0
DWIDTH 8 0
BBX 8 12 0 -2
BITMAP
00
0C
18
00
3C
06
3E
66
66
3E
00
00
ENDCHAR

STARTCHAR acircumflex
ENCODING 226
SWIDTH 667 0
DWIDTH 8 0
BBX 8 12 0 -2
BITMAP
00
1C
36
00
3C
06
3E
66
66
3E
00
00
ENDCHAR

STARTCHAR atilde
ENCODING 227
SWIDTH 667 0
DWIDTH 8 0
BBX 8 12 0 -2
BITMAP
00
3A
2E
00
3C
06
3E
66
66
3E
00
00
ENDCHAR

STARTCHAR adieresis
ENCODING 228
SWIDTH 667 0
DWIDTH 8 0
BBX 8 12 0 -2
BITMAP
00
36
36
00
3C
06
3E
66
66
3E
00
00
ENDCHAR

STARTCHAR aring
ENCODING 229
SWIDTH 667 0
DWIDTH 8 0
BBX 8 12 0 -2
BITMAP
1C
14
1C
00
3C
06
3E
66
66
3E
00
00
ENDCHAR

STARTCHAR ae
ENCODING 230
SWIDTH 667 0
DWIDTH 8 0
BBX 8 12 0 -2
BITMAP
00
00
00
00
7E
1B
7E
D8
D8
6E
00
00
ENDCHAR

STARTCHAR ccedilla
ENCODING 231
SWIDTH 667 0
DWIDTH 8 0
BBX 8 12 0 -2
BITMAP
00
00
00
00
3C
66
60
60
66
3C
08
18
ENDCHAR

STARTCHAR egrave
ENCODING 232
SWIDTH 667 0
DWIDTH 8 0
BBX 8 12 0 -2
BITMAP
00
30
18
00
3C
66
7E
60
66
3C
00
00
ENDCHAR

STARTCHAR eacute
ENCODING 233
SWIDTH 667 0
DWIDTH 8 0
BBX 8 12 0 -2
BITMAP
00
0C
18
00
3C
66
7E
60
66
3C
00
00
ENDCHAR

STARTCHAR ecircumflex
ENCODING 234
SWIDTH 667 0
DWIDTH 8 0
BBX 8 12 0 -2
BITMAP
00
1C
36
00
3C
66
7E
60
66
3C
00
00
ENDCHAR

STARTCHAR edieresis
ENCODING 235
SWIDTH 667 0
DWIDTH 8 0
BBX 8 12 0 -2
BITMAP
00
36
36
00
3C
66
7E
60
66
3C
00
00
ENDCHAR

STARTCHAR igrave
ENCODING 236
SWIDTH 667 0
DWIDTH 8 0
BBX 8 12 0 -2
BITMAP
00
18
0C
00
3C
0C
0C
0C
0C
0C
00
00
ENDCHAR

STARTCHAR iacute
ENCODING 237
SWIDTH 667 0
DWIDTH 8 0
BBX 8 12 0 -2
BITMAP
00
0C
18
00
3C
0C
0C
0C
0C
0C
00
00
ENDCHAR

STARTCHAR icircumflex
ENCODING 238
SWIDTH 667 0
DWIDTH 8 0
BBX 8 12 0 -2
BITMAP
00
1C
36
00
3C
0C
0C
0C
0C
0C
00
00
ENDCHAR

STARTCHAR idieresis
ENCODING 239
SWIDTH 667 0
DWIDTH 8 0
BBX 8 12 0 -2
BITMAP
00
36
36
00
3C
0C
0C
0C
0C
0C
00
00
ENDCHAR

STARTCHAR eth
ENCODING 240
SWIDTH 667 0
DWIDTH 8 0
BBX 8 12 0 -2
BITMAP
00
6C
38
4C
3E
66
66
66
66
3C
00
00
ENDCHAR

STARTCHAR ntilde
ENCODING 241
SWIDTH 667 0
DWIDTH 8 0
BBX 8 12 0 -2
BITMAP
00
74
5C
00
6C
76
66
66
66
66
00
00
ENDCHAR

STARTCHAR ograve
ENCODING 242
SWIDTH 667 0
DWIDTH 8 0
BBX 8 12 0 -2
BITMAP
00
30
18
00
3C
66
66
66
66
3C
00
00
ENDCHAR

STARTCHAR oacute
ENCODING 243
SWIDTH 667 0
DWIDTH 8 0
BBX 8 12 0 -2
BITMAP
00
0C
18
00
3C
66
66
66
66
3C
00
00
ENDCHAR

STARTCHAR ocircumflex
ENCODING 244
SWIDTH 667 0
DWIDTH 8 0
BBX 8 12 0 -2
BITMAP
00
1C
36
00
3C
66
66
66
66
3C
00
00
ENDCHAR

STARTCHAR otilde
ENCODING 245
SWIDTH 667 0
DWIDTH 8 0
BBX 8 12 0 -2
BITMAP
00
3A
2E
00
3C
66
66
66
66
3C
00
00
ENDCHAR

STARTCHAR odieresis
ENCODING 246
SWIDTH 667 0
DWIDTH 8 0
BBX 8 12 0 -2
BITMAP
00
36
36
00
3C
66
66
66
66
3C
00
00
ENDCHAR

STARTCHAR divide
ENCODING 247
SWIDTH 667 0
DWIDTH 8 0
BBX 8 12 0 -2
BITMAP
00
00
18
18
00
7E
7E
00
18
18
00
00
ENDCHAR

STARTCHAR oslash
ENCODING 248
SWIDTH 667 0
DWIDTH 8 0
BBX 8 12 0 -2
BITMAP
00
00
00
02
3C
66
6E
76
66
BC
00
00
ENDCHAR

STARTCHAR ugrave
ENCODING 249
SWIDTH 667 0
DWIDTH 8 0
BBX 8 12 0 -2
BITMAP
00
30
18
00
66
66
66
66
6E
36
00
00
ENDCHAR

STARTCHAR uacute
ENCODING 250
SWIDTH 667 0
DWIDTH 8 0
BBX 8 12 0 -2
BITMAP
00
0C
18
00
66
66
66
66
6E
36
00
00
ENDCHAR

STARTCHAR ucircumflex
ENCODING 251
SWIDTH 667 0
DWIDTH 8 0
BBX 8 12 0 -2
BITMAP
00
1C
36
00
66
66
66
66
6E
36
00
00
ENDCHAR

STARTCHAR udieresis
ENCODING 252
SWIDTH 667 0
DWIDTH 8 0
BBX 8 12 0 -2
BITMAP
00
36
36
00
66
66
66
66
6E
36
00
00
ENDCHAR

STARTCHAR yacute
ENCODING 253
SWIDTH 667 0
DWIDTH 8 0
BBX 8 12 0 -2
BITMAP
00
0C
18
00
66
66
66
66
66
3E
06
7C
ENDCHAR

STARTCHAR thorn
ENCODING 254
SWIDTH 667 0
DWIDTH 8 0
BBX 8 12 0 -2
BITMAP
00
00
E0
60
7C
66
66
66
66
7C
60
F0
ENDCHAR

STARTCHAR ydieresis
ENCODING 255
SWIDTH 667 0
DWIDTH 8 0
BBX 8 12 0 -2
BITMAP
00
36
36
00
66
66
66
66
66
3E
06
7C
ENDCHAR
ENDFONT
